<?xml version="1.0" standalone="no"?>
<!DOCTYPE svg PUBLIC "-//W3C//DTD SVG 20010904//EN"
 "http://www.w3.org/TR/2001/REC-SVG-20010904/DTD/svg10.dtd">
<svg version="1.0" xmlns="http://www.w3.org/2000/svg"
 width="1000.000000pt" height="1000.000000pt" viewBox="0 0 1000.000000 1000.000000"
 preserveAspectRatio="xMidYMid meet">
<metadata>
Created by potrace 1.16, written by Peter Selinger 2001-2019
</metadata>
<g transform="translate(0.000000,1000.000000) scale(0.100000,-0.100000)"
fill="#000000" stroke="none">
<path d="M5625 7189 c-159 -71 -295 -129 -301 -129 -7 0 -39 18 -72 40 -33 22
-65 40 -72 40 -16 0 -460 -130 -482 -141 -9 -5 -121 -214 -249 -465 -129 -251
-239 -458 -245 -461 -6 -2 -225 40 -488 93 -472 95 -508 99 -493 62 3 -7 178
-89 388 -182 211 -93 463 -204 559 -247 96 -42 361 -159 588 -259 l412 -183
-5 -46 c-3 -25 -37 -414 -76 -865 -48 -555 -67 -822 -61 -828 6 -6 17 -8 24
-6 7 3 68 176 136 384 68 209 185 568 260 798 l137 419 1170 403 c644 222
1311 452 1484 511 l315 108 121 185 c67 102 181 276 253 386 73 111 132 209
132 217 0 28 -20 29 -73 7 -77 -33 -2231 -961 -2751 -1186 -247 -107 -450
-193 -451 -191 -6 6 -275 825 -275 835 0 6 101 83 225 172 124 89 225 168 225
175 0 13 -34 15 -216 15 l-217 0 212 215 c202 206 240 256 194 254 -10 0 -148
-59 -308 -130z"/>
<path d="M954 6905 c-3 -8 -4 -18 -2 -23 1 -5 115 -181 252 -391 l249 -381 51
-15 c50 -14 1023 -271 2291 -605 1032 -272 1093 -286 1061 -254 -8 7 -16 18
-18 23 -3 10 -3848 1661 -3867 1661 -6 0 -14 -7 -17 -15z"/>
<path d="M1790 5768 c0 -14 59 -110 151 -243 83 -121 156 -226 162 -232 16
-16 -1 -14 1126 -138 524 -58 964 -102 977 -99 26 7 33 24 10 24 -8 0 -16 4
-18 9 -2 7 -2228 658 -2385 697 -19 5 -23 2 -23 -18z"/>
<path d="M7975 5720 c-126 -37 -662 -193 -1189 -345 -527 -152 -966 -283 -974
-292 -13 -13 -13 -16 -1 -24 8 -5 18 -9 22 -9 23 0 2018 221 2049 227 35 8 47
22 198 242 88 129 159 242 158 250 -2 9 -10 17 -18 18 -8 1 -118 -29 -245 -67z"/>
<path d="M3285 4934 c-445 -13 -815 -26 -822 -28 -7 -3 -13 -12 -13 -20 0 -23
240 -316 259 -316 9 0 339 76 734 169 565 133 722 173 737 189 19 20 18 20 -3
26 -12 3 -35 5 -52 5 -16 -1 -394 -12 -840 -25z"/>
<path d="M5810 4941 c0 -15 10 -23 40 -31 118 -32 1447 -340 1464 -340 24 1
266 295 266 323 0 10 -8 17 -19 17 -56 0 -1478 40 -1603 45 -144 6 -148 5
-148 -14z"/>
<path d="M4060 4721 c-52 -21 -312 -123 -577 -226 -396 -154 -483 -191 -483
-206 0 -11 3 -19 8 -19 4 0 130 -9 281 -20 l273 -19 67 52 c36 29 93 72 126
97 33 24 65 48 70 53 6 4 75 58 155 119 201 153 230 177 230 194 0 24 -49 16
-150 -25z"/>
<path d="M5830 4742 c0 -19 39 -52 298 -250 l272 -210 183 -7 c100 -3 236 -5
302 -3 111 3 120 4 120 22 0 16 -26 30 -135 72 -74 29 -326 127 -559 218 -385
151 -481 182 -481 158z"/>
<path d="M4110 4453 c-96 -108 -205 -230 -242 -272 -38 -41 -68 -78 -68 -84 0
-5 26 -103 57 -219 56 -208 69 -237 98 -207 18 19 365 928 365 957 0 51 -40
18 -210 -175z"/>
<path d="M5713 4643 c-7 -2 -13 -10 -13 -16 0 -23 365 -961 375 -964 27 -8 35
25 64 257 24 193 28 247 18 259 -43 55 -419 471 -425 470 -4 0 -13 -3 -19 -6z"/>
<path d="M4463 4482 c-10 -6 -38 -160 -150 -828 l-26 -152 298 -408 c288 -397
335 -451 335 -392 0 20 -88 393 -354 1487 -39 162 -75 296 -81 298 -5 1 -15
-1 -22 -5z"/>
<path d="M5530 4468 c-8 -19 -118 -553 -342 -1655 -21 -102 -20 -133 4 -133 7
0 131 182 276 405 208 322 262 412 262 439 0 18 -9 82 -20 142 -10 60 -44 258
-75 439 -30 182 -58 342 -61 358 -7 33 -31 35 -44 5z"/>
</g>
</svg>
